<svg id="visual" viewBox="0 0 960 540" width="960" height="540" xmlns="http://www.w3.org/2000/svg" xmlns:xlink="http://www.w3.org/1999/xlink" version="1.1"><rect x="0" y="0" width="960" height="540" fill="#001220"></rect><path d="M0 330L17.8 328C35.7 326 71.3 322 106.8 321.5C142.3 321 177.7 324 213.2 327.7C248.7 331.3 284.3 335.7 320 338C355.7 340.3 391.3 340.7 426.8 338.3C462.3 336 497.7 331 533.2 326.7C568.7 322.3 604.3 318.7 640 315.7C675.7 312.7 711.3 310.3 746.8 311.8C782.3 313.3 817.7 318.7 853.2 322.8C888.7 327 924.3 330 942.2 331.5L960 333L960 541L942.2 541C924.3 541 888.7 541 853.2 541C817.7 541 782.3 541 746.8 541C711.3 541 675.7 541 640 541C604.3 541 568.7 541 533.2 541C497.7 541 462.3 541 426.8 541C391.3 541 355.7 541 320 541C284.3 541 248.7 541 213.2 541C177.7 541 142.3 541 106.8 541C71.3 541 35.7 541 17.8 541L0 541Z" fill="#ff6f61"></path><path d="M0 391L17.8 385.7C35.7 380.3 71.3 369.7 106.8 365.2C142.3 360.7 177.7 362.3 213.2 364.7C248.7 367 284.3 370 320 368.2C355.7 366.3 391.3 359.7 426.8 359.3C462.3 359 497.7 365 533.2 364.5C568.7 364 604.3 357 640 357.5C675.7 358 711.3 366 746.8 366.8C782.3 367.7 817.7 361.3 853.2 357.7C888.7 354 924.3 353 942.2 352.5L960 352L960 541L942.2 541C924.3 541 888.7 541 853.2 541C817.7 541 782.3 541 746.8 541C711.3 541 675.7 541 640 541C604.3 541 568.7 541 533.2 541C497.7 541 462.3 541 426.8 541C391.3 541 355.7 541 320 541C284.3 541 248.7 541 213.2 541C177.7 541 142.3 541 106.8 541C71.3 541 35.7 541 17.8 541L0 541Z" fill="#ff5e60"></path><path d="M0 397L17.8 402.3C35.7 407.7 71.3 418.3 106.8 420.8C142.3 423.3 177.7 417.7 213.2 412C248.7 406.3 284.3 400.7 320 397.7C355.7 394.7 391.3 394.3 426.8 395.7C462.3 397 497.7 400 533.2 399.8C568.7 399.7 604.3 396.3 640 401.5C675.7 406.7 711.3 420.3 746.8 422.3C782.3 424.3 817.7 414.7 853.2 409.2C888.7 403.7 924.3 402.3 942.2 401.7L960 401L960 541L942.2 541C924.3 541 888.7 541 853.2 541C817.7 541 782.3 541 746.8 541C711.3 541 675.7 541 640 541C604.3 541 568.7 541 533.2 541C497.7 541 462.3 541 426.8 541C391.3 541 355.7 541 320 541C284.3 541 248.7 541 213.2 541C177.7 541 142.3 541 106.8 541C71.3 541 35.7 541 17.8 541L0 541Z" fill="#ff4b60"></path><path d="M0 473L17.8 469.8C35.7 466.7 71.3 460.3 106.8 455C142.3 449.7 177.7 445.3 213.2 442.3C248.7 439.3 284.3 437.7 320 436.7C355.7 435.7 391.3 435.3 426.8 440.8C462.3 446.3 497.7 457.7 533.2 458.3C568.7 459 604.3 449 640 449C675.7 449 711.3 459 746.8 459.7C782.3 460.3 817.7 451.7 853.2 448.5C888.7 445.3 924.3 447.7 942.2 448.8L960 450L960 541L942.2 541C924.3 541 888.7 541 853.2 541C817.7 541 782.3 541 746.8 541C711.3 541 675.7 541 640 541C604.3 541 568.7 541 533.2 541C497.7 541 462.3 541 426.8 541C391.3 541 355.7 541 320 541C284.3 541 248.7 541 213.2 541C177.7 541 142.3 541 106.8 541C71.3 541 35.7 541 17.8 541L0 541Z" fill="#ff3362"></path><path d="M0 494L17.8 493.7C35.7 493.3 71.3 492.7 106.8 491.3C142.3 490 177.7 488 213.2 489.2C248.7 490.3 284.3 494.7 320 496.2C355.7 497.7 391.3 496.3 426.8 493.2C462.3 490 497.7 485 533.2 483.8C568.7 482.7 604.3 485.3 640 490C675.7 494.7 711.3 501.3 746.8 500C782.3 498.7 817.7 489.3 853.2 484.7C888.7 480 924.3 480 942.2 480L960 480L960 541L942.2 541C924.3 541 888.7 541 853.2 541C817.7 541 782.3 541 746.8 541C711.3 541 675.7 541 640 541C604.3 541 568.7 541 533.2 541C497.7 541 462.3 541 426.8 541C391.3 541 355.7 541 320 541C284.3 541 248.7 541 213.2 541C177.7 541 142.3 541 106.8 541C71.3 541 35.7 541 17.8 541L0 541Z" fill="#ff0066"></path></svg>