<svg id="Layer_1" data-name="Layer 1" xmlns="http://www.w3.org/2000/svg" viewBox="0 0 1000 1000"><path d="M0,0V530.83a200.79,200.79,0,0,1,53.9-34.41q37.38-16.6,75.44-16.61,72,0,116.29,47.07v-162h92.05V877.11H253.24V830h-1.39q-18.67,29.07-51.91,44.3a167.62,167.62,0,0,1-70.6,15.23q-75.75,0-129.34-50.4V1000H1000V0ZM559.85,445.21q-32.54.69-44.64,9T501,493h54v81.68H501V877.11H409V574.64H376.43V493H409q6.22-70.59,45-107.28,34.59-31.14,80.28-31.15h25.61Zm252.29,405.6q-38.42,38.76-95.86,38.76a167.86,167.86,0,0,1-64.37-12.81Q620.76,864,601.38,839,576.46,807.9,572.31,756h94.13q11.07,49.15,50.53,49.15,17.29,0,29.42-10.73t12.11-28q0-11.76-5.54-20.07-4.14-6.22-15.92-12.46a181.39,181.39,0,0,0-21.11-9.69q-9.34-3.45-25.61-9T672,708.92q-85.83-30.45-85.82-110.06,0-51.21,38.41-85.13t90.33-33.92q50.51,0,86.86,33.92t38.41,83.75h-90q-6.93-33.22-36.69-33.22a36,36,0,0,0-24.92,9.34q-10.38,9.35-10.38,23.88c0,6.47,1.84,11.88,5.54,16.27s7.15,7.38,10.38,9,8.53,3.81,15.92,6.58,18.45,6.47,33.22,11.07q52.59,16.62,80,41.19t27.34,73.71Q850.56,812.05,812.14,850.81Z"/><path d="M139,805.13q47.76,0,80.64-36t32.88-84.44q0-48.44-32.88-84.44t-80.64-36q-46.38,0-79.94,35.64t-33.57,82q0,49.16,32.19,86.17T139,805.13Z"/></svg>