<svg id="Layer_1" data-name="Layer 1" xmlns="http://www.w3.org/2000/svg" viewBox="0 0 1000 1000"><defs><style>.cls-1{fill:#fff;}</style></defs><rect width="1000" height="1000"/><path class="cls-1" d="M245.63,526.88q-44.31-47.06-116.29-47.07-38.07,0-75.44,16.61A200.79,200.79,0,0,0,0,530.83V839.17q53.58,50.4,129.34,50.4a167.62,167.62,0,0,0,70.6-15.23q33.23-15.21,51.91-44.3h1.39v47.07h84.44V364.92H245.63Zm-26,242.25q-32.88,36-80.64,36-49.15,0-81.32-37T25.52,681.92q0-46.36,33.57-82T139,564.26q47.76,0,80.64,36t32.88,84.44Q252.55,733.14,219.67,769.13Z"/><path class="cls-1" d="M454,385.68Q415.19,422.37,409,493H376.43v81.68H409V877.11h92V574.64h54V493H501q2.09-30.45,14.19-38.76t44.64-9V354.53H534.24Q488.57,354.53,454,385.68Z"/><path class="cls-1" d="M823.22,681.58q-27.36-24.57-80-41.19-22.15-6.9-33.22-11.07c-7.39-2.77-12.7-5-15.92-6.58s-6.69-4.6-10.38-9-5.54-9.8-5.54-16.27q0-14.54,10.38-23.88a36,36,0,0,1,24.92-9.34q29.76,0,36.69,33.22h90q-2.07-49.83-38.41-83.75T714.9,479.81q-51.92,0-90.33,33.92t-38.41,85.13q0,79.6,85.82,110.06,2.09.69,18.34,6.22t25.61,9A181.39,181.39,0,0,1,737,733.83q11.76,6.24,15.92,12.46,5.53,8.31,5.54,20.07,0,17.31-12.11,28T717,805.13q-39.45,0-50.53-49.15H572.31q4.16,51.91,29.07,83.06,19.36,24.91,50.53,37.72a167.86,167.86,0,0,0,64.37,12.81q57.45,0,95.86-38.76t38.42-95.52Q850.56,706.15,823.22,681.58Z"/></svg>